# AST/ASF file generated using VICON BodyLanguage
# -----------------------------------------------
:version 1.10
:name VICON
:units
  mass 1.0
  length 0.1
  angle deg
:documentation
   .ast/.asf automatically generated from VICON data using
   VICON BodyBuilder and BodyLanguage model FULLBODY5.MOD
:root
   order TX TY TZ RZ RY RX
   axis XYZ
   position 0 0 0  
   orientation 0 -0 0 
:bonedata
  begin
     id 1 
     name lhipjoint
     direction 0.961525 -0.229516 0.150972 
     length 0.502153 
     axis 0 -0 0  XYZ
  end
  begin
     id 2 
     name lfemur
     direction 0.173648 -0.984808 0  
     length 1.83052  
     axis 0 -0 10  XYZ
    dof rx ry rz
    limits (-180.0 180.0)
           (-180.0 180.0)
           (-180.0 180.0)
  end
  begin
     id 3 
     name ltibia
     direction 0.173629 -0.984811 0   
     length 1.50296   
     axis 0 -0 10   XYZ
    dof rx ry rz
    limits (-180.0 180.0)
           (-180.0 180.0)
           (-180.0 180.0)
  end
  begin
     id 4 
     name lfoot
     direction 7.59329e-012 -0.227408 0.9738   
     length 0.574743   
     axis -90 -1.73656e-015 10   XYZ
    dof rx ry rz
    limits (-180.0 180.0)
           (-180.0 180.0)
           (-180.0 180.0)
  end
  begin
     id 5 
     name ltoes
     direction 7.79885e-012 -4.41741e-011 1   
     length 0.28489   
     axis -90 -1.73656e-015 10   XYZ
    dof rx ry rz
    limits (-180.0 180.0)
           (-180.0 180.0)
           (-180.0 180.0)
  end
  begin
     id 6 
     name rhipjoint
     direction -0.970498 -0.201437 0.132502   
     length 0.572149  
     axis 0 -0 0  XYZ 
  end
  begin
     id 7 
     name rfemur
     direction -0.173648 -0.984808 0   
     length 1.71866   
     axis 0 -0 -10   XYZ
    dof rx ry rz
    limits (-180.0 180.0)
           (-180.0 180.0)
           (-180.0 180.0)
  end
  begin
     id 8 
     name rtibia
     direction -0.173624 -0.984812 0   
     length 1.42623   
     axis 0 -0 -10   XYZ
    dof rx ry rz
    limits (-180.0 180.0)
           (-180.0 180.0)
           (-180.0 180.0)
 end
 begin
     id 9 
     name rfoot
     direction -7.12931e-012 -0.404275 0.914637   
     length 0.524692  
     axis -90 1.73656e-015 -10   XYZ
    dof rx ry rz
    limits (-180.0 180.0)
           (-180.0 180.0)
           (-180.0 180.0)
  end
  begin
     id 10 
     name rtoes
     direction -7.79289e-012 -4.41454e-011 1   
     length 0.254983   
     axis -90 1.73656e-015 -10   XYZ
    dof rx ry rz
    limits (-180.0 180.0)
           (-180.0 180.0)
           (-180.0 180.0)
  end
  begin
     id 11 
     name lowerback
     direction -0.0214086 0.993738 0.109665   
     length 0.417614   
     axis 0 -0 0   XYZ
    dof rx ry rz
    limits (-180.0 180.0)
           (-180.0 180.0)
           (-180.0 180.0)
  end
  begin
     id 12 
     name upperback
     direction 8.15962e-005 0.99996 0.00893412   
     length 0.419234   
     axis 0 -0 0   XYZ
    dof rx ry rz
    limits (-180.0 180.0)
           (-180.0 180.0)
           (-180.0 180.0)
  end
  begin
     id 13 
     name thorax
     direction 0.00826031 0.999067 -0.0423848   
     length 0.424697   
     axis 0 -0 0   XYZ
    dof rx ry rz
    limits (-180.0 180.0)
           (-180.0 180.0)
           (-180.0 180.0)
  end
  begin
     id 14 
     name lowerneck
     direction -0.0196262 0.994272 -0.105058   
     length 0.355877   
     axis 0 -0 0   XYZ
    dof rx ry rz
    limits (-180.0 180.0)
           (-180.0 180.0)
           (-180.0 180.0)
  end
  begin
     id 15 
     name upperneck
     direction 0.000117372 0.999091 0.0426261   
     length 0.351054   
     axis 0 -0 0   XYZ
    dof rx ry rz
    limits (-180.0 180.0)
           (-180.0 180.0)
           (-180.0 180.0)
  end
  begin
     id 16
     name head
     direction 0.00157618 0.999651 0.0263619  
     length 0.374844  
     axis 0 -0 0   XYZ
    dof rx ry rz
    limits (-180.0 180.0)
           (-180.0 180.0)
           (-180.0 180.0)
  end
  begin
     id 17 
     name lshoulderjoint
     direction 0.981627 -0.190809 0  
     length 0.701763  
     axis 0 -0 -11   XYZ
    dof rx ry rz
    limits (-180.0 180.0)
           (-180.0 180.0)
           (-180.0 180.0)
  end
  begin
     id 18 
     name lhumerus
     direction 0.48481 -0.87462 -1.80676e-026   
     length 0.994704   
     axis -180 5.14477e-009 -151   XYZ
    dof rx ry rz
    limits (-180.0 180.0)
           (-180.0 180.0)
           (-180.0 180.0)
  end
  begin
     id 19
     name lradius
     direction 0.48481 -0.87462 -3.2569e-026   
     length 0.617638   
     axis -180 5.14477e-009 -151   XYZ
    dof rx ry rz
    limits (-180.0 180.0)
           (-180.0 180.0)
           (-180.0 180.0)
  end
  begin
     id 20
     name lwrist
     direction 0.48481 -0.87462 -6.73202e-026   
     length 0.308819   
     axis -180 5.14477e-009 -151   XYZ
    dof rx ry rz
    limits (-180.0 180.0)
           (-180.0 180.0)
           (-180.0 180.0)
  end
  begin
     id 21 
     name lhand
     direction 0.478366 -0.863761 -0.158376   
     length 0.291656   
     axis -180 5.14477e-009 -151   XYZ
    dof rx ry rz
    limits (-180.0 180.0)
           (-180.0 180.0)
           (-180.0 180.0)
  end
  begin
     id 22 
     name rshoulderjoint
     direction -0.981627 -0.190809 0   
     length 0.66654  
     axis 0 -0 11   XYZ 
    dof rx ry rz
    limits (-180.0 180.0)
           (-180.0 180.0)
           (-180.0 180.0)
  end
  begin
     id 23 
     name rhumerus
     direction -0.48481 -0.87462 1.77576e-026  
     length 1.15089   
     axis 180 5.14477e-009 151   XYZ
    dof rx ry rz
    limits (-180.0 180.0)
           (-180.0 180.0)
           (-180.0 180.0)
  end
  begin
     id 24 
     name rradius
     direction -0.48481 -0.87462 3.79421e-026   
     length 0.613887   
     axis 180 5.14477e-009 151   XYZ
    dof rx ry rz
    limits (-180.0 180.0)
           (-180.0 180.0)
           (-180.0 180.0)
  end
  begin
     id 25 
     name rwrist
     direction -0.48481 -0.87462 5.43623e-026   
     length 0.306944   
     axis 180 5.14477e-009 151   XYZ
    dof rx ry rz
    limits (-180.0 180.0)
           (-180.0 180.0)
           (-180.0 180.0)
  end
  begin
     id 26
     name rhand
     direction -0.479273 -0.864638 -0.150661   
     length 0.306429   
     axis 180 5.14477e-009 151   XYZ
    dof rx ry rz
    limits (-180.0 180.0)
           (-180.0 180.0)
           (-180.0 180.0)
  end
:hierarchy
  begin
    root lhipjoint rhipjoint lowerback 
    lhipjoint lfemur
    lfemur ltibia
    ltibia lfoot
    lfoot ltoes
    rhipjoint rfemur
    rfemur rtibia
    rtibia rfoot
    rfoot rtoes
    lowerback upperback
    upperback thorax
    thorax lowerneck lshoulderjoint rshoulderjoint
    lowerneck upperneck
    upperneck head
    lshoulderjoint lhumerus
    lhumerus lradius
    lradius lwrist
    lwrist lhand
    rshoulderjoint rhumerus
    rhumerus rradius
    rradius rwrist
    rwrist rhand
  end

:FULLY-SPECIFIED
:DEGREES
243
root 4.19245 3.54414 -0.394154 119.489 -75.4519 113.888
lowerback -12.8817 -0.0544171 -4.18497
upperback -3.326 0.338838 -0.38618
thorax 3.69529 0.0787677 2.00715
lowerneck 15.7162 0.886798 -2.90089
upperneck -4.62149 0.660672 1.17288
head -3.91421 0.294302 0.777223
rshoulderjoint 2.33427 -3.34835 -45.912
rhumerus 34.7798 -69.6108 -50.9207
rradius 46.6397 -1.78111e-013 6.36111e-015
rwrist 3.41042e-013 9.10877 2.17429e-013
rhand 28.2689 -8.89423 13.2897
lshoulderjoint 6.28966 11.2011 40.5703
lhumerus 117.386 61.6279 132.053
lradius 38.2423 6.36111e-014 7.55382e-014
lwrist 7.5299e-014 8.11893 2.08829e-014
lhand 21.6878 -7.86517 15.7655
rfemur -10.263 5.03975 7.75436
rtibia 36.744 1.07344e-014 -8.74653e-015
rfoot -7.31193 9.43769 -15.6155
rtoes 3.11694e-013 3.29983e-013 -1.44715e-013
lfemur -26.1448 -8.22381 -15.953
ltibia 9.68681 1.27222e-014 -2.62396e-014
lfoot 0.101887 -2.38389 13.5466
ltoes -1.59028e-013 1.22933e-013 4.33661e-014
244
root 4.22262 3.53796 -0.400739 119.027 -75.2261 113.349
lowerback -12.9289 -0.0645387 -4.26377
upperback -3.3695 0.336026 -0.438731
thorax 3.67509 0.076601 1.99619
lowerneck 15.6258 0.909843 -2.92983
upperneck -4.65362 0.691951 1.19396
head -3.91084 0.310173 0.78606
rshoulderjoint 2.32551 -3.34284 -45.8551
rhumerus 35.0705 -69.6625 -51.2492
rradius 46.5954 0 -1.87653e-013
rwrist -1.51317e-013 8.92311 -2.31805e-013
rhand 28.2546 -8.67017 13.1763
lshoulderjoint 6.3138 11.2465 40.5672
lhumerus 116.941 61.6877 131.511
lradius 38.2229 1.39944e-013 6.44062e-014
lwrist -4.73778e-014 8.03075 -6.42411e-014
lhand 21.8457 -7.74699 15.5284
rfemur -9.66995 4.89488 7.85602
rtibia 34.5952 -1.19271e-015 -3.18055e-015
rfoot -9.00763 8.86673 -15.9191
rtoes 8.5875e-014 1.21656e-013 -5.725e-014
lfemur -27.1786 -8.26424 -15.7247
ltibia 10.2501 7.95139e-015 -1.03368e-014
lfoot 0.211118 -2.12437 13.6172
ltoes -1.55847e-013 6.98293e-014 3.01035e-014
245
root 4.25361 3.53137 -0.407488 118.624 -75.0208 112.838
lowerback -12.9286 -0.0692264 -4.36278
upperback -3.39984 0.342543 -0.507223
thorax 3.64207 0.0794272 1.9812
lowerneck 15.5301 0.926299 -2.94605
upperneck -4.70402 0.715925 1.19654
head -3.912 0.323544 0.787712
rshoulderjoint 2.31376 -3.33008 -45.8215
rhumerus 35.2366 -69.7074 -51.4718
rradius 46.5641 -4.92986e-014 5.56597e-014
rwrist 7.82708e-014 8.9057 1.37628e-013
rhand 28.175 -8.67276 13.1274
lshoulderjoint 6.32235 11.2624 40.5664
lhumerus 116.762 61.6436 131.178
lradius 38.1742 3.18055e-015 9.85972e-014
lwrist 1.32489e-014 8.00607 1.44534e-013
lhand 21.9152 -7.85127 15.3311
rfemur -9.11188 4.72046 7.95655
rtibia 32.5003 3.97569e-016 0
rfoot -10.9159 9.19383 -16.4337
rtoes 2.8625e-014 -1.27222e-014 -9.54166e-015
lfemur -28.1961 -8.31313 -15.5188
ltibia 10.7952 4.77083e-015 -3.18055e-015
lfoot 0.336815 -1.80476 13.7199
ltoes 3.97569e-016 2.44086e-014 -9.7653e-015
246
root 4.2855 3.52417 -0.414485 118.069 -74.791 112.165
lowerback -12.9363 -0.0827711 -4.47963
upperback -3.42796 0.340281 -0.582767
thorax 3.61616 0.07761 1.96752
lowerneck 15.4072 0.946156 -2.96671
upperneck -4.78127 0.746572 1.21405
head -3.9174 0.339967 0.794223
rshoulderjoint 2.32015 -3.34614 -45.7666
rhumerus 35.5546 -69.7562 -51.8264
rradius 46.5536 -4.77083e-014 -1.74931e-014
rwrist -2.90334e-013 8.89003 9.49672e-014
rhand 28.084 -8.65336 13.0967
lshoulderjoint 6.34391 11.2824 40.6077
lhumerus 116.152 61.7431 130.465
lradius 38.1617 -1.36764e-013 -9.30312e-014
lwrist 7.42536e-014 7.89178 1.60548e-015
lhand 22.141 -7.71613 15.0246
rfemur -8.69093 4.30835 8.06438
rtibia 30.6186 -8.34896e-015 2.38542e-015
rfoot -12.8739 9.64711 -16.4945
rtoes -6.36111e-015 -1.37559e-013 7.31528e-014
lfemur -29.2517 -8.3867 -15.3011
ltibia 11.2956 1.59028e-015 1.27222e-014
lfoot 0.503921 -1.5086 13.8003
ltoes -3.18055e-015 -4.49424e-014 -2.20434e-014
247
root 4.31841 3.51664 -0.421758 117.495 -74.577 111.515
lowerback -12.873 -0.0922318 -4.56009
upperback -3.46372 0.334525 -0.648632
thorax 3.54402 0.0756266 1.94258
lowerneck 15.3002 0.966211 -2.98305
upperneck -4.87016 0.777352 1.226
head -3.92884 0.356697 0.798293
rshoulderjoint 2.31144 -3.33323 -45.7692
rhumerus 35.8539 -69.8653 -52.242
rradius 46.5639 -3.02153e-014 9.54166e-014
rwrist 5.76865e-013 8.77427 8.60873e-014
rhand 28.0365 -8.4881 13.0621
lshoulderjoint 6.37073 11.31 40.6531
lhumerus 115.551 61.8237 129.726
lradius 38.1456 9.85972e-014 -7.95139e-016
lwrist 3.25051e-014 7.81634 -1.31626e-013
lhand 22.3598 -7.73954 14.6819
rfemur -8.34817 3.50742 8.23234
rtibia 28.9601 -1.19271e-015 4.77083e-015
rfoot -14.7074 10.337 -16.294
rtoes -9.54166e-015 -7.95139e-015 6.67916e-014
lfemur -30.2959 -8.45634 -15.0322
ltibia 11.7652 7.95139e-015 8.74653e-015
lfoot 0.703013 -1.10679 13.8841
ltoes -1.4074e-013 8.92745e-015 2.98973e-015
248
root 4.35202 3.50874 -0.428973 116.876 -74.4017 110.847
lowerback -12.7503 -0.10883 -4.60453
upperback -3.48001 0.312888 -0.698988
thorax 3.4613 0.0666999 1.91099
lowerneck 15.2208 0.992255 -3.03072
upperneck -5.03089 0.809068 1.22693
head -3.96689 0.375835 0.8038
rshoulderjoint 2.2862 -3.29513 -45.7825
rhumerus 35.9856 -69.9382 -52.461
rradius 46.5949 -6.04305e-014 -3.97569e-014
rwrist 3.28497e-013 8.81629 -1.68976e-014
rhand 27.9285 -8.51725 13.0963
lshoulderjoint 6.37517 11.2978 40.6967
lhumerus 114.789 62.0616 128.809
lradius 38.126 1.78111e-013 7.95139e-014
lwrist 1.28358e-014 7.62917 -1.01082e-013
lhand 22.7119 -7.61397 14.1955
rfemur -8.05281 2.45404 8.44574
rtibia 27.465 7.95139e-016 -9.54166e-015
rfoot -16.1532 11.2057 -16.1208
rtoes 6.36111e-015 2.19458e-013 -3.18055e-014
lfemur -31.3056 -8.54238 -14.7355
ltibia 12.2064 4.77083e-015 -2.22639e-014
lfoot 0.886877 -0.713212 13.9473
ltoes -1.88845e-013 1.3653e-013 4.1077e-014
249
root 4.38632 3.50086 -0.436114 116.271 -74.2378 110.202
lowerback -12.59 -0.119157 -4.63146
upperback -3.48032 0.297244 -0.768796
thorax 3.37476 0.0610508 1.85012
lowerneck 15.1737 1.02592 -3.06263
upperneck -5.28765 0.857974 1.26774
head -4.04021 0.40168 0.817654
rshoulderjoint 2.26568 -3.26594 -45.7788
rhumerus 36.0101 -69.9959 -52.6259
rradius 46.6525 8.74653e-014 -1.74931e-014
rwrist -5.50601e-013 8.83126 -6.51789e-014
rhand 27.8655 -8.5198 13.1428
lshoulderjoint 6.39578 11.2996 40.7732
lhumerus 113.5 62.4333 127.361
lradius 38.1324 -3.08514e-013 -2.11507e-013
lwrist -9.46269e-014 7.45808 7.05692e-014
lhand 23.1887 -7.41064 13.5037
rfemur -7.93091 1.30372 8.66087
rtibia 26.1509 5.56597e-015 -3.97569e-015
rfoot -17.3351 11.6975 -15.7796
rtoes 9.54166e-015 -2.03555e-013 9.54166e-014
lfemur -32.3033 -8.62669 -14.437
ltibia 12.6409 1.59028e-014 2.22639e-014
lfoot 1.01298 -0.407046 14.0056
ltoes 8.54774e-014 -8.98973e-014 -4.32046e-015
250
root 4.42113 3.4934 -0.443016 115.629 -74.1144 109.671
lowerback -12.3474 -0.110938 -4.4701
upperback -3.46617 0.279405 -0.799198
thorax 3.26013 0.0564409 1.72407
lowerneck 15.0825 1.04942 -3.08896
upperneck -5.51133 0.889709 1.24721
head -4.09572 0.422374 0.813068
rshoulderjoint 2.22821 -3.21642 -45.7404
rhumerus 35.7354 -70.0094 -52.4192
rradius 46.7229 5.88403e-014 -1.95604e-013
rwrist -4.15901e-013 8.90536 -2.89743e-013
rhand 27.7732 -8.63162 13.2266
lshoulderjoint 6.3924 11.2651 40.8344
lhumerus 112.245 62.8814 125.935
lradius 38.1306 6.36111e-014 5.24792e-014
lwrist -1.13774e-013 7.06679 9.6147e-015
lhand 23.7431 -7.09252 12.7454
rfemur -7.84499 0.34108 9.02362
rtibia 24.9415 5.56597e-015 -8.74653e-015
rfoot -18.3579 11.9609 -15.3552
rtoes -1.27222e-014 -1.05753e-013 9.85972e-014
lfemur -33.2376 -8.69553 -13.999
ltibia 13.0233 2.06736e-014 7.15625e-015
lfoot 1.13387 -0.154654 14.0489
ltoes 1.35174e-014 -1.74138e-014 -1.65364e-014
251
root 4.45647 3.48679 -0.449578 115.018 -74.0032 109.272
lowerback -12.068 -0.0863346 -4.21148
upperback -3.42733 0.27176 -0.784822
thorax 3.15103 0.0575799 1.59166
lowerneck 15.0325 1.08984 -3.14447
upperneck -5.81067 0.937187 1.22412
head -4.18164 0.452198 0.81095
rshoulderjoint 2.19081 -3.16304 -45.7342
rhumerus 35.6054 -70.0771 -52.3806
rradius 46.8007 3.02153e-014 -3.18055e-014
rwrist 6.06951e-013 8.84474 -1.72207e-013
rhand 27.7722 -8.52691 13.2507
lshoulderjoint 6.38644 11.2309 40.8855
lhumerus 110.514 63.4857 124.033
lradius 38.1237 3.78486e-013 2.94201e-013
lwrist 6.64654e-014 6.80958 -1.28126e-014
lhand 24.3465 -6.78186 11.8369
rfemur -7.81192 -0.40428 9.49406
rtibia 23.7819 -1.59028e-015 5.56597e-015
rfoot -19.2334 12.6681 -15.1824
rtoes 6.04305e-014 7.95139e-014 -4.13472e-014
lfemur -34.1038 -8.73337 -13.4694
ltibia 13.3219 1.59028e-015 -1.19271e-014
lfoot 1.16476 0.211592 14.0955
ltoes -3.10104e-014 5.52155e-014 -1.3977e-014
